<svg xmlns="http://www.w3.org/2000/svg" xmlns:xlink="http://www.w3.org/1999/xlink" version="1.1" x="0px" y="0px" viewBox="0 0 96 96" enable-background="new 0 0 96 96" xml:space="preserve" fill="#7400b3"><path d="M19.253,46.887l48.528,0.005l0.003-25.946l-48.53-0.005L19.253,46.887z M20.755,22.441l45.53,0.005l-0.003,22.946  l-45.528-0.005L20.755,22.441z"/><path d="M60.843,25.115v-0.75l-34.646-0.004l-0.001,0.749c-0.001,1.529-1.246,2.772-2.774,2.772h-0.75v12.066h0.75  c1.529,0,2.772,1.244,2.772,2.772v0.75l34.648,0.004v-0.75c0-1.529,1.243-2.773,2.771-2.773h0.75l0.001-12.066h-0.75  C62.086,27.885,60.843,26.642,60.843,25.115z M62.863,38.518c-1.755,0.312-3.144,1.701-3.456,3.457l-31.78-0.004  c-0.312-1.755-1.701-3.144-3.457-3.457v-9.198c1.755-0.312,3.144-1.7,3.458-3.455l31.779,0.004c0.313,1.755,1.701,3.143,3.456,3.455  L62.863,38.518z"/><path d="M43.52,27.159c-3.728,0-6.76,3.031-6.76,6.757c0,3.727,3.032,6.759,6.758,6.759c3.726,0,6.758-3.032,6.76-6.759  C50.276,30.191,47.244,27.159,43.52,27.159z M43.518,39.176c-2.899,0-5.258-2.359-5.258-5.259c0-2.899,2.36-5.257,5.26-5.257  c2.898,0,5.256,2.359,5.258,5.258C48.776,36.817,46.417,39.176,43.518,39.176z"/><path d="M45.115,33.132c-0.001,0-0.002,0-0.003,0l-0.843,0v-0.074l0-1.592h1.24h0.584v-0.75v-0.75H44.27V29.36h-0.75h-0.75v0.605  h-0.567c-0.359,0-0.676,0.061-0.943,0.182c-0.265,0.12-0.484,0.289-0.663,0.515c-0.153,0.203-0.256,0.422-0.311,0.651  c-0.06,0.223-0.09,0.471-0.092,0.766v0.438c0,0.271,0.03,0.527,0.087,0.75c0.062,0.257,0.172,0.486,0.323,0.677  c0.167,0.213,0.387,0.384,0.66,0.509c0.267,0.119,0.582,0.179,0.938,0.179l0.567,0.001v0.352l0,1.383H41.69h-0.584v0.75v0.75h1.661  v0.608h0.75h0.75v-0.608h0.842c0.995,0,1.664-0.76,1.664-1.892v-0.95c0-0.344-0.069-0.989-0.528-1.447  C45.953,33.287,45.562,33.132,45.115,33.132z M45.273,35.976c0,0.204-0.057,0.355-0.164,0.392h-0.842l0-1.731l0.917,0.003  c0.032,0.028,0.088,0.182,0.088,0.386V35.976z M41.782,33.015c-0.013-0.016-0.029-0.042-0.045-0.11  c-0.028-0.11-0.043-0.245-0.043-0.388v-0.431c0.002-0.197,0.023-0.319,0.046-0.406c0.011-0.045,0.026-0.078,0.044-0.101  c0.023-0.029,0.064-0.052,0.093-0.065c0.041-0.018,0.136-0.048,0.326-0.048h0.566l0,1.666l-0.567,0c-0.189,0-0.287-0.031-0.32-0.045  C41.851,33.071,41.808,33.048,41.782,33.015z"/><path d="M28.215,75.053l48.528,0.005l0.003-25.946l-48.53-0.005L28.215,75.053z M29.716,50.607l45.53,0.005l-0.003,22.946  l-45.528-0.005L29.716,50.607z"/><path d="M69.804,53.281v-0.75l-34.646-0.004l-0.001,0.749c-0.002,1.528-1.247,2.772-2.774,2.772h-0.75v12.066h0.75  c1.528,0,2.772,1.244,2.772,2.772v0.75l34.648,0.004v-0.75c0-1.529,1.243-2.772,2.771-2.772h0.75l0.001-12.066h-0.75  C71.048,56.052,69.804,54.809,69.804,53.281z M71.825,66.684c-1.755,0.312-3.144,1.701-3.456,3.457l-31.78-0.004  c-0.312-1.755-1.7-3.144-3.456-3.456v-9.198c1.755-0.312,3.144-1.7,3.458-3.455l31.78,0.004c0.313,1.755,1.701,3.143,3.456,3.455  L71.825,66.684z"/><path d="M52.479,55.324c-3.727,0-6.759,3.032-6.759,6.759c0,3.728,3.032,6.76,6.759,6.76s6.759-3.032,6.759-6.76  C59.239,58.356,56.207,55.324,52.479,55.324z M52.479,67.343c-2.9,0-5.259-2.359-5.259-5.26c0-2.9,2.359-5.259,5.259-5.259  s5.259,2.359,5.259,5.259C57.739,64.984,55.379,67.343,52.479,67.343z"/><path d="M53.196,59.406c0.532,0,1.045,0.156,1.485,0.451l0.835-1.246c-0.688-0.461-1.49-0.705-2.32-0.705  c-1.798,0-3.321,1.148-3.909,2.744h-0.598v1.366v0.134v1.366h0.598c0.588,1.597,2.11,2.745,3.909,2.745  c0.829,0,1.631-0.244,2.32-0.706l-0.835-1.246c-0.441,0.295-0.955,0.452-1.485,0.452c-0.948,0-1.778-0.499-2.254-1.245h2.254V62.15  v-0.134V60.65h-2.254C51.418,59.905,52.248,59.406,53.196,59.406z"/><path d="M14.88,63.068c1.861,0.907,3.856,1.442,5.931,1.59l4.759,0.339l-4.426-1.783l-0.16-0.061  c-0.063-0.023-0.124-0.045-0.181-0.073c-6.696-3.265-9.867-11.063-7.487-18.037l3.075,1.499l-1.971-11.859L3.865,40.436l3.228,1.573  C3.671,49.931,7.046,59.249,14.88,63.068z M13.287,37.009l1.148,6.911l-0.59-0.288l-1.168-0.569l-5.542-2.701L13.287,37.009z   M11.944,44.374c-2.294,6.467-0.21,13.616,4.888,17.901c-0.439-0.164-0.871-0.349-1.295-0.556  C8.445,58.262,5.36,49.837,8.423,42.658l3.044,1.483L11.944,44.374z"/><path d="M81.12,36.688c-1.861-0.907-3.856-1.442-5.931-1.59l-4.769-0.34l4.436,1.784l0.157,0.061  c0.063,0.023,0.125,0.045,0.183,0.073c6.696,3.265,9.867,11.063,7.487,18.036l-3.075-1.499l1.971,11.859l10.557-5.753l-3.228-1.573  C92.329,49.824,88.954,40.507,81.12,36.688z M82.713,62.747l-1.148-6.911l0.59,0.288l1.168,0.569l5.542,2.701L82.713,62.747z   M84.056,55.381c2.294-6.467,0.21-13.616-4.888-17.901c0.439,0.164,0.871,0.349,1.295,0.556c7.092,3.458,10.177,11.882,7.114,19.061  L84.056,55.381z"/></svg>